<?xml version="1.0" standalone="no"?>
<!DOCTYPE svg PUBLIC "-//W3C//DTD SVG 20010904//EN"
 "http://www.w3.org/TR/2001/REC-SVG-20010904/DTD/svg10.dtd">
<svg version="1.0" xmlns="http://www.w3.org/2000/svg"
 width="300.000000pt" height="300.000000pt" viewBox="0 0 300.000000 300.000000"
 preserveAspectRatio="xMidYMid meet">
<metadata>
Created by potrace 1.11, written by Peter Selinger 2001-2013
</metadata>
<g transform="translate(0.000000,300.000000) scale(0.100000,-0.100000)"
fill="#000000" stroke="none">
<path d="M1783 2910 c-13 -6 -23 -18 -23 -30 0 -11 -5 -20 -11 -20 -8 0 -8 -5
1 -15 7 -9 29 -15 51 -15 38 0 39 1 32 28 -3 15 -6 35 -5 45 1 19 -11 21 -45
7z"/>
<path d="M1872 2901 c-20 -12 16 -91 42 -91 16 0 17 2 5 17 -8 10 -20 24 -26
31 -16 16 -17 32 -3 32 6 0 10 5 10 10 0 12 -10 13 -28 1z"/>
<path d="M1633 2823 c-16 -6 -17 -40 -2 -45 6 -2 9 -13 6 -23 -5 -19 -5 -19
-12 3 -7 22 -25 31 -25 12 0 -13 22 -53 35 -62 6 -4 15 -6 22 -3 7 2 15 0 18
-5 3 -5 12 -7 20 -4 17 7 13 34 -14 97 -15 36 -23 41 -48 30z"/>
<path d="M953 2790 c-6 -24 -16 -25 -36 -6 -17 17 -82 16 -114 -2 -12 -6 -24
-20 -28 -31 -3 -10 -18 -21 -33 -24 -34 -7 -181 -154 -262 -262 -195 -261
-315 -670 -296 -1015 3 -57 11 -109 16 -114 6 -6 10 -20 10 -33 0 -41 20 -62
55 -56 19 3 44 -1 63 -11 17 -9 43 -16 57 -16 53 0 125 -52 170 -122 9 -16 22
-28 28 -28 6 0 22 -10 35 -22 l24 -23 -7 35 c-4 19 -20 76 -36 126 -16 50 -29
109 -29 132 0 42 30 125 57 154 9 10 19 36 24 58 5 22 13 58 17 79 8 35 7 41
-14 52 -30 15 -49 70 -35 97 13 24 36 34 64 27 17 -5 33 6 71 45 26 27 54 50
62 50 8 0 19 9 26 20 7 11 18 20 24 20 6 0 32 16 57 35 28 21 66 39 99 46 29
6 71 21 93 32 22 12 43 21 46 22 18 1 102 52 109 66 18 33 82 61 149 65 36 2
68 9 72 15 4 7 9 8 13 1 3 -5 22 -13 42 -17 20 -3 44 -10 53 -15 9 -5 28 -11
43 -14 40 -9 51 -25 98 -138 62 -150 61 -149 55 -99 -6 46 -33 120 -95 256
-18 39 -33 129 -32 192 0 23 -10 43 -44 79 -24 27 -44 54 -44 62 0 7 -9 23
-20 35 -11 12 -26 39 -32 60 -9 30 -22 44 -57 64 -25 15 -57 35 -70 45 -13 10
-34 18 -47 18 -13 0 -35 11 -50 25 -34 32 -101 38 -116 10 -10 -16 -48 -8 -48
10 0 16 -25 27 -72 30 -29 3 -38 -1 -38 -12 0 -14 -2 -14 -18 0 -25 23 -53 21
-59 -3z"/>
<path d="M1767 2763 c-7 -12 36 -63 53 -63 5 0 10 -7 10 -16 0 -10 7 -14 23
-12 18 2 22 9 20 32 -4 52 -11 61 -31 42 -25 -21 -37 -20 -54 6 -9 13 -17 18
-21 11z"/>
<path d="M2170 2723 c0 -10 -5 -24 -12 -31 -7 -7 -9 -12 -4 -12 4 0 0 -10 -8
-22 -9 -12 -16 -32 -16 -43 0 -34 -28 -65 -59 -65 -28 0 -39 13 -61 73 -8 22
-15 27 -44 27 l-35 0 15 -37 c9 -20 14 -47 11 -60 -4 -23 -3 -24 34 -18 21 4
44 3 51 -1 7 -5 20 -9 28 -9 52 -4 52 -5 48 -30 -4 -20 -1 -25 16 -25 36 0 54
22 64 75 5 28 13 58 17 68 5 12 2 17 -10 17 -15 0 -16 6 -11 43 5 33 3 47 -9
57 -13 10 -15 9 -15 -7z"/>
<path d="M1938 2722 c-10 -2 -18 -8 -18 -13 0 -5 8 -9 18 -9 14 0 15 -2 2 -10
-8 -5 -10 -10 -5 -10 6 0 16 4 24 9 18 12 1 38 -21 33z"/>
<path d="M1866 2631 c-7 -10 22 -37 30 -28 9 8 -3 37 -15 37 -5 0 -12 -4 -15
-9z"/>
<path d="M2241 2544 c0 -11 3 -14 6 -6 3 7 2 16 -1 19 -3 4 -6 -2 -5 -13z"/>
<path d="M2290 2543 c0 -6 29 -41 65 -79 36 -38 65 -77 65 -87 0 -10 -4 -15
-10 -12 -5 3 -10 3 -10 -1 0 -11 153 -154 164 -154 4 0 3 6 -3 13 -6 8 -8 17
-4 20 8 8 -6 36 -69 144 -43 72 -55 85 -101 107 -29 14 -62 33 -74 42 -13 9
-23 12 -23 7z"/>
<path d="M1845 2507 c-12 -10 -14 -16 -7 -21 7 -4 12 -21 12 -37 0 -37 24 -35
26 2 2 44 4 49 18 49 8 0 18 5 21 10 9 15 -48 12 -70 -3z"/>
<path d="M1790 2490 c0 -5 4 -10 9 -10 6 0 13 5 16 10 3 6 -1 10 -9 10 -9 0
-16 -4 -16 -10z"/>
<path d="M2048 2463 c7 -3 16 -2 19 1 4 3 -2 6 -13 5 -11 0 -14 -3 -6 -6z"/>
<path d="M2410 2214 c0 -8 32 -33 43 -34 4 0 3 9 -3 20 -10 18 -40 29 -40 14z"/>
<path d="M2530 2140 c20 -13 33 -13 25 0 -3 6 -14 10 -23 10 -15 0 -15 -2 -2
-10z"/>
<path d="M1707 1755 c-51 -15 -90 -33 -109 -52 -16 -16 -38 -27 -49 -25 -10 2
-19 -1 -19 -6 0 -5 -9 -12 -21 -15 -17 -5 -20 -12 -18 -44 2 -22 11 -43 21
-51 10 -7 18 -24 18 -37 0 -26 15 -41 25 -25 4 6 14 2 24 -11 18 -22 19 -22
60 -6 23 9 50 17 60 17 23 0 51 31 51 58 0 29 16 36 50 22 19 -8 34 -9 46 -2
16 9 15 11 -6 22 -23 12 -114 9 -168 -6 -31 -9 -20 17 17 39 37 22 116 33 125
18 4 -6 12 -11 18 -11 6 0 5 6 -3 16 -10 12 -26 15 -67 12 -45 -4 -51 -3 -39
9 7 7 37 17 66 22 62 10 76 21 67 55 -8 33 -41 34 -149 1z"/>
<path d="M1210 1578 c-123 -17 -278 -77 -333 -129 -11 -10 -29 -21 -38 -24
-25 -8 -50 -60 -36 -74 20 -20 53 -11 163 43 111 55 200 84 160 51 -19 -14
-19 -15 10 -15 60 0 57 -17 -8 -35 -34 -9 -86 -33 -115 -51 -30 -19 -56 -34
-59 -34 -3 0 5 14 17 31 l22 31 -29 -15 c-79 -41 -81 -88 -5 -92 37 -2 44 0
52 23 l10 25 22 -22 c13 -11 35 -21 49 -21 38 0 78 36 78 71 0 26 3 29 30 29
20 0 30 -5 30 -15 0 -18 9 -19 44 -5 15 5 26 17 26 28 0 11 14 25 35 35 31 15
35 21 34 54 0 21 4 53 9 71 9 28 8 32 -7 32 -10 0 -21 3 -25 8 -10 9 -68 10
-136 0z"/>
<path d="M1644 1434 c27 -10 49 -11 78 -5 66 15 56 21 -33 20 l-84 0 39 -15z"/>
<path d="M262 1198 c-17 -17 -15 -41 3 -34 8 3 15 0 15 -7 0 -12 39 32 40 46
0 12 -45 8 -58 -5z"/>
<path d="M407 1088 c-8 -13 -18 -38 -22 -55 -9 -45 12 -43 49 3 22 28 27 41
19 52 -15 25 -31 25 -46 0z"/>
<path d="M1560 1039 c-32 -13 -71 -49 -64 -60 3 -5 19 -9 35 -9 31 0 51 -26
30 -39 -9 -6 -9 -15 -1 -35 8 -22 14 -26 33 -21 12 4 29 15 39 26 9 10 27 19
40 19 30 0 68 38 68 68 0 24 -8 26 -60 13 -77 -20 -100 -21 -100 -6 0 10 10
15 30 15 34 0 39 14 11 30 -23 12 -28 12 -61 -1z"/>
<path d="M1850 979 c0 -6 -14 -29 -32 -52 l-32 -40 48 6 c64 9 70 14 51 43 -9
14 -13 28 -10 33 2 5 -2 11 -10 15 -8 3 -15 1 -15 -5z"/>
<path d="M640 925 c0 -3 6 -16 14 -28 8 -12 17 -42 21 -67 4 -25 12 -54 18
-65 14 -27 57 -70 71 -70 6 0 9 -9 8 -20 -2 -11 -1 -17 4 -13 8 8 53 -78 53
-102 1 -8 24 -36 53 -62 47 -41 52 -49 41 -67 -11 -17 -8 -23 23 -46 19 -14
39 -23 46 -19 6 4 8 3 4 -4 -4 -6 17 -27 49 -49 31 -21 111 -79 179 -129 139
-104 168 -122 160 -100 -4 10 7 15 40 20 25 4 46 11 46 16 0 5 15 14 34 20 19
6 56 32 83 58 58 57 105 92 155 116 25 11 40 26 44 42 5 21 11 24 30 20 18 -5
22 -3 18 9 -4 8 9 32 30 57 20 23 36 47 36 54 0 6 3 26 7 44 l6 33 -37 -37
c-28 -27 -46 -36 -71 -36 -35 0 -100 -23 -110 -40 -12 -19 -157 -81 -174 -74
-9 3 -50 7 -91 9 -41 2 -75 4 -75 5 0 6 -54 12 -145 14 -123 4 -180 13 -187
32 -3 8 -9 14 -14 14 -11 0 -78 72 -79 84 0 5 -7 16 -15 25 -28 29 -75 94 -97
133 -12 21 -28 38 -35 38 -8 0 -11 4 -8 10 4 6 -1 7 -11 3 -13 -5 -15 -2 -9
18 7 20 6 22 -7 11 -12 -10 -17 -7 -26 14 -7 14 -12 32 -12 40 0 24 -29 73
-50 84 -11 6 -20 8 -20 5z"/>
<path d="M1723 849 c-31 -31 -239 -83 -298 -75 -25 4 -46 3 -49 -3 -4 -6 -13
-8 -21 -4 -16 6 -22 -22 -6 -31 4 -3 6 -16 4 -30 -9 -43 0 -42 113 20 22 12
69 28 106 37 67 15 143 52 168 81 14 18 0 22 -17 5z"/>
<path d="M1660 674 c-130 -53 -139 -68 -39 -58 66 6 79 11 116 43 37 32 55 63
36 60 -5 -1 -55 -21 -113 -45z"/>
<path d="M1750 151 c0 -5 5 -13 10 -16 6 -3 10 -2 10 4 0 5 -4 13 -10 16 -5 3
-10 2 -10 -4z"/>
</g>
</svg>
